<mxfile host="app.diagrams.net" modified="2022-12-02T08:58:34.711Z" agent="5.0 (Windows NT 10.0; Win64; x64) AppleWebKit/537.36 (KHTML, like Gecko) Chrome/107.0.0.0 Safari/537.36" version="20.6.0" etag="9JxyrgtbRsxs7Onsm2mp" type="github">
  <diagram id="Gf5eJxrAlExV2YdLw1QW" name="第 1 页">
    <mxGraphModel dx="1422" dy="762" grid="1" gridSize="10" guides="1" tooltips="1" connect="1" arrows="1" fold="1" page="1" pageScale="1" pageWidth="1654" pageHeight="2336" math="0" shadow="0">
      <root>
        <mxCell id="0" />
        <mxCell id="1" parent="0" />
        <mxCell id="1_YTdjK4BtzeSzSLTIwy-2" value="" style="rounded=0;whiteSpace=wrap;html=1;strokeWidth=1;perimeterSpacing=1;fillColor=#ffe6cc;strokeColor=#d79b00;" vertex="1" parent="1">
          <mxGeometry x="300" y="170" width="700" height="410" as="geometry" />
        </mxCell>
        <mxCell id="1_YTdjK4BtzeSzSLTIwy-10" value="" style="verticalLabelPosition=bottom;verticalAlign=top;html=1;shape=mxgraph.basic.rect;fillColor2=none;strokeWidth=1;size=20;indent=5;dashed=1;perimeterSpacing=2;fillColor=#f8cecc;strokeColor=#b85450;" vertex="1" parent="1">
          <mxGeometry x="350" y="220" width="220" height="270" as="geometry" />
        </mxCell>
        <mxCell id="1_YTdjK4BtzeSzSLTIwy-3" value="TaskAgentManger" style="rounded=0;whiteSpace=wrap;html=1;fillColor=#d5e8d4;strokeColor=#82b366;" vertex="1" parent="1">
          <mxGeometry x="390" y="290" width="120" height="60" as="geometry" />
        </mxCell>
        <mxCell id="1_YTdjK4BtzeSzSLTIwy-5" value="RusageManager" style="rounded=0;whiteSpace=wrap;html=1;fillColor=#d5e8d4;strokeColor=#82b366;" vertex="1" parent="1">
          <mxGeometry x="390" y="360" width="120" height="60" as="geometry" />
        </mxCell>
        <mxCell id="1_YTdjK4BtzeSzSLTIwy-11" value="" style="verticalLabelPosition=bottom;verticalAlign=top;html=1;shape=mxgraph.basic.rect;fillColor2=none;strokeWidth=1;size=20;indent=5;dashed=1;fillColor=#f8cecc;strokeColor=#b85450;" vertex="1" parent="1">
          <mxGeometry x="635" y="220" width="265" height="270" as="geometry" />
        </mxCell>
        <mxCell id="1_YTdjK4BtzeSzSLTIwy-12" value="&lt;b&gt;Distritubed Job Manager&lt;/b&gt;" style="text;html=1;strokeColor=none;fillColor=none;align=center;verticalAlign=middle;whiteSpace=wrap;rounded=0;strokeWidth=1;" vertex="1" parent="1">
          <mxGeometry x="320" y="180" width="220" height="30" as="geometry" />
        </mxCell>
        <mxCell id="1_YTdjK4BtzeSzSLTIwy-13" value="Head Node" style="text;html=1;strokeColor=none;fillColor=none;align=center;verticalAlign=middle;whiteSpace=wrap;rounded=0;strokeWidth=1;" vertex="1" parent="1">
          <mxGeometry x="350" y="230" width="120" height="20" as="geometry" />
        </mxCell>
        <mxCell id="1_YTdjK4BtzeSzSLTIwy-15" value="Remote Node" style="text;html=1;strokeColor=none;fillColor=none;align=center;verticalAlign=middle;whiteSpace=wrap;rounded=0;strokeWidth=1;" vertex="1" parent="1">
          <mxGeometry x="640" y="238" width="120" height="20" as="geometry" />
        </mxCell>
        <mxCell id="1_YTdjK4BtzeSzSLTIwy-16" value="TaskExecutor" style="rounded=0;whiteSpace=wrap;html=1;strokeWidth=1;fillColor=#d5e8d4;strokeColor=#82b366;" vertex="1" parent="1">
          <mxGeometry x="707" y="300" width="120" height="60" as="geometry" />
        </mxCell>
      </root>
    </mxGraphModel>
  </diagram>
</mxfile>
